# xmcd
#
# Track frame offsets:
#	150
#	14842
#	25285
#	37992
#	50640
#	63835
#	76812
#	90020
#	101602
#	115035
#
# Disc length: 1684 seconds
#
# Revision: 1
# Processed by: cddbd v1.5.1PL2 Copyright (c) Steve Scherf et al.
# Submitted via: audiograbber 1.82.02
#
DISCID=6e06920a
DTITLE=Red Simpson - Best Of Red Simpson
DYEAR=1900
DGENRE=Country
TTITLE0=Hello, I'm A Truck
TTITLE1=Highway Patrol
TTITLE2=Roll Truck Roll
TTITLE3=I Burn Up the Roads That I Drive On
TTITLE4=Old Timer's Advice
TTITLE5=Endless Black Ribbon
TTITLE6=I Got A Beaver On My Lap
TTITLE7=Diesel Smoke, Dangerous Curves
TTITLE8=California Turn-Arounds
TTITLE9=My Name Is Red Simpson
EXTD=
EXTT0=
EXTT1=
EXTT2=
EXTT3=
EXTT4=
EXTT5=
EXTT6=
EXTT7=
EXTT8=
EXTT9=
PLAYORDER=
